<svg width="80" height="76" viewBox="0 0 80 76" fill="none" xmlns="http://www.w3.org/2000/svg">
<path d="M66.7402 37.9676L76.0737 39.4758L75.5641 42.6295C75.4462 43.3586 75.225 43.9371 74.9002 44.3647C74.5785 44.7928 74.1838 45.0844 73.716 45.2395C73.2483 45.3947 72.7394 45.4278 72.1895 45.3389C71.6396 45.2501 71.1701 45.0589 70.7811 44.7653C70.3921 44.4717 70.1136 44.0729 69.9456 43.5688C69.7807 43.0651 69.7567 42.4518 69.8735 41.7287L70.2859 39.1765L71.3068 39.3415L70.9003 41.8572C70.8198 42.3554 70.8279 42.7683 70.9246 43.0957C71.0209 43.4261 71.1916 43.6813 71.4369 43.8612C71.6847 44.0446 71.9955 44.1666 72.3692 44.2269C72.7429 44.2873 73.0808 44.2702 73.3829 44.1756C73.685 44.081 73.9368 43.8926 74.1383 43.6103C74.3428 43.3284 74.4858 42.9353 74.5673 42.431L74.8884 40.444L66.5576 39.0978L66.7402 37.9676ZM70.2231 43.0384L65.6591 44.6578L65.8712 43.3453L70.4293 41.7623L70.2231 43.0384Z" fill="white"/>
<path d="M65.3382 45.3387L73.7969 49.5624L71.2479 54.6673L70.3392 54.2136L72.3768 50.1329L69.5187 48.7058L67.6131 52.5221L66.7044 52.0684L68.61 48.2521L65.7354 46.8167L63.6648 50.9635L62.7562 50.5098L65.3382 45.3387Z" fill="white"/>
<path d="M64.0152 63.1481L57.2095 56.5853L57.9786 55.7877L66.8983 57.232L66.9624 57.1656L61.6189 52.0127L62.4136 51.1886L69.2193 57.7514L68.4502 58.549L59.5043 57.1051L59.4403 57.1716L64.7971 62.3373L64.0152 63.1481Z" fill="white"/>
<path d="M51.5594 65.0717C51.0954 64.189 50.8538 63.3425 50.8346 62.532C50.8154 61.7216 50.992 60.9959 51.3644 60.3551C51.7369 59.7143 52.28 59.2063 52.9937 58.8311C53.7074 58.4559 54.4338 58.2966 55.1729 58.3531C55.9119 58.4097 56.6098 58.6757 57.2664 59.1511C57.9231 59.6264 58.4835 60.3054 58.9474 61.1881C59.4114 62.0707 59.653 62.9173 59.6722 63.7277C59.6914 64.5382 59.5148 65.2638 59.1424 65.9046C58.7699 66.5455 58.2268 67.0535 57.5131 67.4287C56.7994 67.8039 56.073 67.9632 55.3339 67.9066C54.5949 67.85 53.897 67.5841 53.2404 67.1087C52.5837 66.6333 52.0233 65.9543 51.5594 65.0717ZM52.5401 64.5561C52.921 65.2808 53.3637 65.8286 53.8682 66.1997C54.37 66.5722 54.8939 66.7784 55.4399 66.8183C55.9831 66.8595 56.5081 66.747 57.0148 66.4806C57.5215 66.2143 57.9132 65.845 58.1899 65.3727C58.464 64.9018 58.5912 64.3533 58.5716 63.7274C58.5492 63.1028 58.3476 62.4282 57.9667 61.7036C57.5858 60.979 57.1444 60.4304 56.6427 60.0579C56.1381 59.6868 55.6143 59.4806 55.071 59.4393C54.5251 59.3995 53.9987 59.5127 53.492 59.7791C52.9853 60.0454 52.595 60.4141 52.3209 60.8849C52.0442 61.3572 51.917 61.9057 51.9393 62.5302C51.9589 63.1562 52.1592 63.8315 52.5401 64.5561Z" fill="white"/>
<path d="M50.1481 70.3241L45.8804 63.0435L45.7716 63.0645L44.5279 71.4116L43.3495 71.6396L44.9617 61.6978L46.122 61.4732L51.3265 70.0961L50.1481 70.3241Z" fill="white"/>
<path d="M40.6435 62.255L41.8403 62.346L37.662 71.5102L36.4836 71.4206L33.7387 61.7301L34.9355 61.8211L37.1493 69.9711L37.223 69.9767L40.6435 62.255ZM39.9216 65.904L35.0974 65.5372L35.1744 64.5245L39.9986 64.8913L39.9216 65.904Z" fill="white"/>
<path d="M31.0065 69.6651L30.6595 70.6196L23.9952 68.1974L24.3421 67.2428L27.1363 68.2584L30.0191 60.3272L31.0951 60.7183L28.2123 68.6495L31.0065 69.6651Z" fill="white"/>
<path d="M20.1209 65.9232L25.0758 57.871L26.0508 58.471L21.0959 66.5232L20.1209 65.9232Z" fill="white"/>
<path d="M14.4531 54.9103C15.1504 54.1975 15.8817 53.7074 16.647 53.44C17.4123 53.1726 18.1571 53.1176 18.8814 53.275C19.6057 53.4325 20.256 53.7931 20.8324 54.357C21.4088 54.9209 21.7837 55.5631 21.957 56.2838C22.1303 57.0044 22.0917 57.7503 21.8412 58.5213C21.5907 59.2923 21.1168 60.0342 20.4195 60.747C19.7222 61.4598 18.9909 61.9499 18.2256 62.2173C17.4602 62.4847 16.7154 62.5397 15.9912 62.3822C15.2669 62.2248 14.6165 61.8641 14.0401 61.3003C13.4637 60.7364 13.0889 60.0941 12.9155 59.3735C12.7422 58.6528 12.7808 57.907 13.0313 57.136C13.2818 56.365 13.7557 55.6231 14.4531 54.9103ZM15.2451 55.6851C14.6726 56.2703 14.2873 56.8599 14.0893 57.4541C13.889 58.0461 13.8538 58.608 13.9837 59.1397C14.1114 59.6694 14.3799 60.1343 14.7891 60.5346C15.1983 60.935 15.6702 61.1942 16.2047 61.3124C16.737 61.4284 17.2979 61.3809 17.8876 61.1698C18.475 60.9566 19.055 60.5574 19.6275 59.9722C20.2 59.387 20.5863 58.7984 20.7866 58.2064C20.9846 57.6123 21.0198 57.0504 20.8921 56.5207C20.7622 55.989 20.4927 55.5229 20.0835 55.1226C19.6743 54.7223 19.2035 54.4641 18.6712 54.3481C18.1367 54.2299 17.5757 54.2775 16.9883 54.4907C16.3986 54.7017 15.8175 55.0999 15.2451 55.6851Z" fill="white"/>
<path d="M5.77227 48.6755L14.2473 44.4846L14.7384 45.4778L10.3678 53.3865L10.4088 53.4692L17.063 50.1788L17.5704 51.205L9.09545 55.3959L8.60434 54.4027L12.9832 46.4693L12.9423 46.3865L6.27156 49.6852L5.77227 48.6755Z" fill="white"/>
<path d="M8.98699 40.2898L9.98755 40.1156L10.6973 44.1906L9.69673 44.3649L8.98699 40.2898Z" fill="white"/>
<path d="M3.68035 37.3904L3.89281 36.0406L12.145 34.0868L12.1622 33.9774L4.9092 29.5831L5.12167 28.2333L14.4612 29.7033L14.2947 30.7613L7.19883 29.6444L7.18447 29.7356L13.821 33.7711L13.6602 34.7926L6.10491 36.5944L6.09056 36.6856L13.1864 37.8025L13.0199 38.8605L3.68035 37.3904Z" fill="white"/>
<path d="M15.0746 28.8164L6.83796 24.1746L9.63936 19.2037L10.5242 19.7023L8.28485 23.6758L11.0679 25.2443L13.1622 21.5281L14.047 22.0267L11.9527 25.7429L14.7519 27.3204L17.0275 23.2825L17.9123 23.7811L15.0746 28.8164Z" fill="white"/>
<path d="M17.2197 11.114L23.7074 17.9914L22.9015 18.7517L14.06 16.8871L13.9928 16.9505L19.0867 22.3503L18.2539 23.1359L11.7662 16.2585L12.5721 15.4983L21.4397 17.3636L21.5069 17.3002L16.4003 11.887L17.2197 11.114Z" fill="white"/>
<path d="M25.9868 6.26653L27.022 5.77758L29.6955 11.4379C29.9715 12.0223 30.0802 12.6092 30.0216 13.1985C29.9644 13.7837 29.7492 14.3261 29.3759 14.8257C29.0013 15.3226 28.4787 15.7294 27.808 16.0462C27.1374 16.363 26.4912 16.5082 25.8695 16.4819C25.2465 16.4528 24.6895 16.2751 24.1984 15.9488C23.7088 15.6185 23.326 15.1611 23.05 14.5767L20.3765 8.91632L21.4118 8.42737L24.0458 14.0042C24.2429 14.4217 24.5102 14.7498 24.8477 14.9886C25.1838 15.2247 25.5657 15.3558 25.9933 15.3819C26.4223 15.4039 26.8748 15.3025 27.3506 15.0778C27.8265 14.853 28.1922 14.5679 28.4477 14.2226C28.702 13.8745 28.8433 13.4963 28.8717 13.0881C28.9016 12.6757 28.818 12.2608 28.6208 11.8434L25.9868 6.26653Z" fill="white"/>
<path d="M31.6237 4.59306L33.7518 13.805L32.6363 14.0627L30.5082 4.85076L31.6237 4.59306Z" fill="white"/>
<path d="M40.5628 5.99328C40.4922 5.52752 40.2558 5.17186 39.8537 4.92629C39.4516 4.68072 38.9644 4.56724 38.3923 4.58586C37.9739 4.59947 37.6101 4.67906 37.3008 4.82461C36.9945 4.97007 36.7575 5.16407 36.5899 5.40663C36.4254 5.64909 36.348 5.92105 36.3578 6.2225C36.366 6.47473 36.433 6.68964 36.5589 6.86722C36.6878 7.04163 36.8495 7.18571 37.0441 7.29947C37.2386 7.41015 37.4417 7.50054 37.6534 7.57063C37.865 7.63765 38.0592 7.69138 38.236 7.73181L39.2041 7.95896C39.4523 8.01555 39.729 8.09585 40.0341 8.19985C40.3424 8.30375 40.6381 8.44963 40.9214 8.63749C41.2076 8.82217 41.4464 9.06382 41.6378 9.36244C41.8292 9.66106 41.9321 10.0318 41.9465 10.4748C41.9631 10.9854 41.8443 11.4512 41.5901 11.8721C41.339 12.2929 40.9621 12.6331 40.4594 12.8927C39.9597 13.1522 39.3469 13.2938 38.621 13.3174C37.9443 13.3394 37.3547 13.2493 36.8524 13.047C36.3531 12.8446 35.9556 12.5527 35.6599 12.1713C35.3673 11.7897 35.1941 11.3412 35.1404 10.8256L36.3216 10.7872C36.364 11.143 36.4935 11.4344 36.7103 11.6614C36.9301 11.8851 37.2033 12.0487 37.53 12.152C37.8596 12.2521 38.2121 12.2961 38.5874 12.2839C39.0242 12.2697 39.4141 12.1861 39.757 12.0333C40.0999 11.8775 40.3687 11.6685 40.5634 11.4066C40.758 11.1416 40.8497 10.8369 40.8385 10.4924C40.8283 10.1786 40.7323 9.92616 40.5506 9.735C40.3689 9.54384 40.133 9.3914 39.8429 9.27766C39.5528 9.16393 39.2402 9.06633 38.905 8.98486L37.7314 8.69049C36.9863 8.50227 36.392 8.2183 35.9485 7.83858C35.505 7.45887 35.2729 6.95064 35.2522 6.3139C35.235 5.78483 35.363 5.31877 35.6363 4.91573C35.9125 4.50951 36.2901 4.1893 36.769 3.95508C37.2509 3.71769 37.7933 3.58919 38.3962 3.56957C39.0052 3.54975 39.5501 3.64133 40.031 3.84431C40.5117 4.04422 40.8966 4.3273 41.1856 4.69357C41.4777 5.05973 41.6393 5.48096 41.6702 5.95724L40.5628 5.99328Z" fill="white"/>
<path d="M43.5011 13.1823L45.5962 3.96284L51.1603 5.22724L50.9352 6.21761L46.4875 5.20692L45.7796 8.3221L49.9392 9.26733L49.7142 10.2577L45.5546 9.31247L44.8426 12.4457L49.3623 13.4727L49.1372 14.4631L43.5011 13.1823Z" fill="white"/>
<path d="M50.0391 14.7133L54.4382 6.34458L57.2659 7.831C57.9197 8.17468 58.3977 8.56848 58.6998 9.01239C59.0033 9.45358 59.1542 9.92058 59.1525 10.4134C59.1507 10.9062 59.0202 11.3991 58.761 11.8922C58.5019 12.3853 58.1712 12.7695 57.7691 13.045C57.3671 13.3204 56.9004 13.4575 56.369 13.4564C55.8391 13.4525 55.2499 13.2801 54.6016 12.9393L52.3132 11.7364L52.7944 10.8211L55.05 12.0068C55.4968 12.2416 55.8908 12.3653 56.2319 12.3777C56.5758 12.3916 56.872 12.3109 57.1206 12.1356C57.3734 11.959 57.5879 11.7032 57.764 11.3681C57.9401 11.033 58.0314 10.7072 58.0378 10.3907C58.0443 10.0742 57.9457 9.77556 57.7422 9.49472C57.5401 9.21115 57.2129 8.95051 56.7607 8.7128L54.979 7.77627L51.0525 15.246L50.0391 14.7133ZM55.9544 13.0246L56.0378 17.8666L54.8609 17.248L54.8103 12.4232L55.9544 13.0246Z" fill="white"/>
<path d="M63.8996 12.2519L57.8725 19.5363L56.9904 18.8065L63.0175 11.522L63.8996 12.2519Z" fill="white"/>
<path d="M59.3936 20.7049L66.7293 14.7404L70.329 19.1677L69.541 19.8084L66.6636 16.2695L64.1849 18.2848L66.8759 21.5945L66.0879 22.2352L63.3969 18.9255L60.9039 20.9525L63.8279 24.5488L63.0399 25.1895L59.3936 20.7049Z" fill="white"/>
<path d="M71.9865 27.7934C72.3975 27.5631 72.647 27.2165 72.735 26.7536C72.823 26.2907 72.7574 25.7948 72.5382 25.266C72.378 24.8793 72.1752 24.5669 71.93 24.3288C71.6858 24.0935 71.4208 23.9401 71.1347 23.8688C70.8498 23.8003 70.568 23.8238 70.2894 23.9393C70.0562 24.0359 69.8788 24.1744 69.757 24.3548C69.6392 24.5369 69.5614 24.739 69.5236 24.9612C69.4886 25.1823 69.4756 25.4042 69.4846 25.627C69.4965 25.8486 69.5147 26.0493 69.5392 26.229L69.668 27.2151C69.7026 27.4673 69.725 27.7545 69.7353 28.0767C69.7467 28.4018 69.7145 28.73 69.6386 29.0613C69.5667 29.3942 69.4248 29.7029 69.2128 29.9873C69.0009 30.2717 68.6902 30.4987 68.2808 30.6684C67.8088 30.864 67.3311 30.9171 66.8476 30.8276C66.3652 30.741 65.914 30.5082 65.4938 30.1293C65.0748 29.7533 64.7262 29.2298 64.4481 28.5588C64.1889 27.9333 64.0654 27.3498 64.0775 26.8084C64.0909 26.2699 64.2239 25.795 64.4766 25.3838C64.7304 24.9754 65.0891 24.6552 65.5526 24.4231L66.0051 25.5149C65.6871 25.68 65.4601 25.904 65.3241 26.1869C65.1922 26.4714 65.1355 26.7848 65.154 27.1269C65.1765 27.4707 65.2597 27.816 65.4034 28.1629C65.5708 28.5666 65.7864 28.902 66.0503 29.1691C66.3171 29.435 66.6073 29.6129 66.9211 29.7027C67.2377 29.7914 67.5552 29.7698 67.8736 29.6378C68.1636 29.5176 68.366 29.3388 68.4808 29.1013C68.5956 28.8638 68.6551 28.5893 68.6593 28.2778C68.6634 27.9662 68.6445 27.6393 68.6025 27.2968L68.4642 26.0949C68.3776 25.3312 68.4338 24.675 68.6327 24.1261C68.8317 23.5772 69.2255 23.1808 69.814 22.9369C70.303 22.7343 70.7843 22.6897 71.2578 22.8033C71.7353 22.9186 72.1681 23.159 72.5561 23.5246C72.9482 23.8918 73.2597 24.354 73.4906 24.9113C73.7239 25.4742 73.8304 26.0165 73.81 26.538C73.7924 27.0583 73.6632 27.5183 73.4224 27.9179C73.1827 28.3204 72.8455 28.6201 72.4107 28.8169L71.9865 27.7934Z" fill="white"/>
<path d="M71.1025 36.2676L70.0946 36.3926L69.5855 32.2877L70.5934 32.1627L71.1025 36.2676Z" fill="white"/>
</svg>
