<svg width="147" height="55" viewBox="0 0 147 55" fill="none" xmlns="http://www.w3.org/2000/svg">
<mask id="mask0_5_6" style="mask-type:luminance" maskUnits="userSpaceOnUse" x="0" y="11" width="21" height="28">
<path d="M0 11.5054H20.6511V38.0569H0V11.5054Z" fill="white"/>
</mask>
<g mask="url(#mask0_5_6)">
<path fill-rule="evenodd" clip-rule="evenodd" d="M16.1963 30.1759C16.1963 27.9183 14.1952 26.694 11.175 26.694H4.5307V33.8484C6.60724 33.9246 8.72085 34.0012 10.3823 34.0012C14.0823 34.0012 16.1963 32.8151 16.1963 30.1759ZM4.5307 15.5992V22.7925H10.3823C13.2891 22.7925 15.1393 21.3382 15.1393 19.043C15.1393 16.5563 13.4024 15.523 9.89168 15.523C8.19234 15.523 6.30505 15.5992 4.5307 15.5992ZM20.6511 30.5588C20.6511 35.4178 16.9511 38.0569 10.9108 38.0569C7.70177 38.0569 2.56711 37.8664 0 37.7131V11.6968C2.45417 11.6201 6.9465 11.5054 10.4193 11.5054C16.1959 11.5054 19.4049 13.954 19.4049 18.354C19.4049 21.3378 17.6305 23.6331 14.6478 24.4369C18.3478 25.164 20.6507 27.4974 20.6507 30.5583" fill="#231F20"/>
</g>
<path fill-rule="evenodd" clip-rule="evenodd" d="M38.7226 28.2899C38.7226 24.8643 36.5112 22.6188 33.2125 22.6188C29.8759 22.6188 27.6269 24.8643 27.6269 28.2899C27.6269 31.7917 29.8763 34.1138 33.2125 34.1138C36.5112 34.1138 38.7226 31.7917 38.7226 28.2899ZM43.1085 28.2899C43.1085 34.1896 39.0977 38.1102 33.2125 38.1102C27.2894 38.1102 23.2786 34.1896 23.2786 28.2899C23.2786 22.5041 27.2898 18.622 33.2125 18.622C39.0977 18.622 43.1085 22.5045 43.1085 28.2899Z" fill="#231F20"/>
<path fill-rule="evenodd" clip-rule="evenodd" d="M64.2316 37.1562C62.2801 37.5762 57.4765 38.1102 54.0248 38.1102C49.5963 38.1102 46.5571 36.1259 46.5571 31.0888V19.4882H50.9102V30.0586C50.9102 32.9203 52.2608 34.3321 54.9629 34.3321C56.5014 34.3321 58.19 34.2178 59.8785 33.9891V19.4882H64.2316V37.1562Z" fill="#231F20"/>
<path fill-rule="evenodd" clip-rule="evenodd" d="M75.6598 37.6771L67.6804 19.4882H72.4909L78.026 32.4088L83.5237 19.4882H88.3725L80.3552 37.6771H75.6598Z" fill="#231F20"/>
<path fill-rule="evenodd" clip-rule="evenodd" d="M94.1547 26.4861H103.848C103.736 23.8015 101.812 22.0628 99.1337 22.0628C96.4179 22.0628 94.5698 23.8015 94.1547 26.4861ZM107.771 26.5238C107.771 28.0742 107.734 28.4523 107.508 29.813H94.3055C94.947 32.2326 96.908 33.783 99.9631 33.783C101.585 33.783 103.471 33.4426 106.376 32.7999L106.979 36.3537C104.188 37.2237 101.962 37.6771 99.8497 37.6771C93.136 37.6771 89.6658 33.5183 89.6658 28.1496C89.6658 22.3274 93.702 18.622 99.0583 18.622C104.075 18.622 107.696 21.76 107.771 26.5238Z" fill="#231F20"/>
<path fill-rule="evenodd" clip-rule="evenodd" d="M124.584 37.5347C122.977 37.9184 122.118 38.1102 119.915 38.1102C115.695 38.1102 113.343 35.6166 113.343 30.9364V23.3403H109.496V19.3881H113.343V12.559H117.637V19.3881H123.463V23.3399H117.637V30.4756C117.637 32.8921 118.495 34.1584 120.736 34.1584C121.819 34.1584 122.828 34.0818 124.135 33.8518L124.583 37.5347H124.584Z" fill="#231F20"/>
<path fill-rule="evenodd" clip-rule="evenodd" d="M139.81 3.75686C140.966 4.44598 142.072 5.21662 143.12 6.06297C142.833 3.96084 142.331 2.0484 141.667 0.433911V0.433044C139.982 0.645249 138.128 1.15238 136.223 1.94663C137.46 2.46369 138.659 3.06864 139.81 3.75686Z" fill="#7A6B7C"/>
<path fill-rule="evenodd" clip-rule="evenodd" d="M132.635 16.1643C131.479 15.4747 130.373 14.7041 129.325 13.8582C129.325 13.8634 129.327 13.8695 129.328 13.8755C129.616 15.9716 130.116 17.878 130.779 19.4881C132.464 19.2759 134.318 18.7688 136.223 17.9746C134.986 17.4576 133.787 16.8527 132.635 16.1643Z" fill="#F4811F"/>
<mask id="mask1_5_6" style="mask-type:luminance" maskUnits="userSpaceOnUse" x="129" y="0" width="8" height="6">
<path d="M129.558 0.124268H136.455V5.80486H129.558V0.124268Z" fill="white"/>
</mask>
<g mask="url(#mask1_5_6)">
<path fill-rule="evenodd" clip-rule="evenodd" d="M132.868 3.47748C134.018 2.78358 135.217 2.17341 136.455 1.65165C134.549 0.850472 132.697 0.338582 131.011 0.123779C131.011 0.125886 131.01 0.127938 131.009 0.129842C130.43 1.55205 129.974 3.20421 129.676 5.01272C129.634 5.26795 129.596 5.52378 129.561 5.78012L129.558 5.8048C130.605 4.95164 131.711 4.17406 132.868 3.47791" fill="#00ADEE"/>
</g>
<path fill-rule="evenodd" clip-rule="evenodd" d="M139.81 16.1639C138.659 16.8522 137.46 17.4571 136.223 17.9741C138.127 18.7666 139.978 19.2742 141.661 19.4873C141.663 19.4878 141.665 19.4881 141.667 19.4881C142.331 17.8736 142.833 15.9608 143.12 13.8582C142.072 14.7043 140.966 15.4748 139.81 16.1639Z" fill="#61BB46"/>
<path fill-rule="evenodd" clip-rule="evenodd" d="M143.12 5.63075V5.62988C143.294 6.93776 143.39 8.31752 143.39 9.74492C143.39 11.1723 143.295 12.5508 143.12 13.8582C144.691 12.5521 146.004 11.1494 146.996 9.75012C146.997 9.74846 146.999 9.74672 147 9.74492C146.007 8.34264 144.694 6.93862 143.12 5.63075Z" fill="#FFCA05"/>
<path fill-rule="evenodd" clip-rule="evenodd" d="M129.056 9.74449C129.056 8.31709 129.151 6.93819 129.326 5.62988L129.31 5.64287C127.744 6.94772 126.435 8.3474 125.446 9.74449L125.448 9.74839C126.439 11.1459 127.749 12.546 129.316 13.8504L129.326 13.8582C129.145 12.4945 129.055 11.1202 129.056 9.74449Z" fill="#816AAE"/>
<mask id="mask2_5_6" style="mask-type:luminance" maskUnits="userSpaceOnUse" x="0" y="0" width="148" height="56">
<path d="M0 55.433H147.431V0.433044H0V55.433Z" fill="white"/>
</mask>
<g mask="url(#mask2_5_6)">
<path fill-rule="evenodd" clip-rule="evenodd" d="M10.3459 53.2676V47.2047H10.9581V52.6969H14.2257V53.2676H10.3459Z" fill="#231F20"/>
<path fill-rule="evenodd" clip-rule="evenodd" d="M14.7699 47.6507C14.5336 47.5784 14.4103 47.4329 14.4103 47.2428C14.4103 46.9795 14.6569 46.7716 14.9647 46.7716C15.2734 46.7716 15.5191 46.9799 15.5191 47.2428C15.5191 47.4697 15.4674 47.5329 14.7492 48.937H14.2258L14.7699 47.6507Z" fill="#231F20"/>
<path fill-rule="evenodd" clip-rule="evenodd" d="M16.5191 53.2676H17.1139V49.1422H16.5191V53.2676ZM16.3811 47.6516C16.3811 47.3922 16.5708 47.2047 16.8122 47.2047C17.0536 47.2047 17.2433 47.3922 17.2433 47.6516C17.2446 47.709 17.2343 47.7661 17.2131 47.8195C17.192 47.8728 17.1604 47.9214 17.1201 47.9622C17.0799 48.003 17.0319 48.0353 16.979 48.057C16.9261 48.0788 16.8694 48.0897 16.8122 48.089C16.5708 48.089 16.3811 47.9015 16.3811 47.6516Z" fill="#231F20"/>
<path fill-rule="evenodd" clip-rule="evenodd" d="M22.8473 50.6528V53.2677H22.2416V50.7983C22.2416 49.9902 21.8028 49.5086 21.0829 49.5086C20.6263 49.5086 20.1172 49.5363 19.5732 49.6364V53.2677H18.9675V49.1639C19.5732 49.0279 20.4686 48.937 21.188 48.937C22.2153 48.937 22.8473 49.5818 22.8473 50.6528Z" fill="#231F20"/>
<path fill-rule="evenodd" clip-rule="evenodd" d="M28.0204 50.6528V53.2677H27.4147V50.7983C27.4147 49.9902 26.9759 49.5086 26.256 49.5086C25.7994 49.5086 25.2903 49.5363 24.7463 49.6364V53.2677H24.1406V49.1639C24.7463 49.0279 25.6417 48.937 26.3611 48.937C27.3884 48.937 28.0204 49.5818 28.0204 50.6528Z" fill="#231F20"/>
<path fill-rule="evenodd" clip-rule="evenodd" d="M33.0284 51.0936C33.0284 50.1244 32.3891 49.487 31.4691 49.487C30.5574 49.487 29.9099 50.1244 29.9099 51.0936C29.9099 52.0715 30.5574 52.7263 31.4691 52.7263C32.3891 52.7263 33.0284 52.0715 33.0284 51.0936ZM33.6246 51.0936C33.6246 52.3946 32.7387 53.2677 31.4691 53.2677C30.2082 53.2677 29.3137 52.3946 29.3137 51.0936C29.3137 49.8014 30.2082 48.937 31.4691 48.937C32.7387 48.937 33.6246 49.8014 33.6246 51.0936Z" fill="#231F20"/>
<path fill-rule="evenodd" clip-rule="evenodd" d="M35.9033 53.2677L34.0557 49.3701H34.7057L36.2197 52.593L37.7251 49.3701H38.3665L36.5275 53.2677H35.9033Z" fill="#231F20"/>
<path fill-rule="evenodd" clip-rule="evenodd" d="M39.4201 51.1023C39.4201 52.0793 40.0331 52.7484 40.9849 52.7484C41.4794 52.7484 41.9182 52.6168 42.486 52.2556V49.5705C42.0017 49.4944 41.5122 49.4563 41.022 49.4566C39.9788 49.4566 39.4205 50.1344 39.4205 51.1027M43.1085 49.157V53.1356H42.486V52.7748C41.9644 53.1092 41.4975 53.2677 40.9026 53.2677C39.6395 53.2677 38.7976 52.3963 38.7976 51.085C38.8062 49.7996 39.621 48.937 40.9487 48.937C41.7355 48.937 42.2571 48.9989 43.1085 49.157Z" fill="#231F20"/>
<path fill-rule="evenodd" clip-rule="evenodd" d="M46.9883 53.1507C46.6822 53.2317 46.4675 53.2676 46.1451 53.2676C45.2605 53.2676 44.8471 52.7709 44.8471 51.6774V49.5172H43.9707V48.9573H44.8471V47.2047H45.4092V48.9573H46.7728V49.5177H45.4088V51.6233C45.4088 52.3729 45.6403 52.7077 46.2356 52.7077C46.4661 52.7038 46.6957 52.6795 46.9219 52.6349L46.9883 53.1507Z" fill="#231F20"/>
<path fill-rule="evenodd" clip-rule="evenodd" d="M48.4194 53.2676H49.0143V49.1422H48.4194V53.2676ZM48.2815 47.6516C48.2815 47.3922 48.4712 47.2047 48.7126 47.2047C48.954 47.2047 49.1437 47.3922 49.1437 47.6516C49.1449 47.709 49.1347 47.7661 49.1135 47.8195C49.0924 47.8728 49.0607 47.9214 49.0205 47.9622C48.9803 48.003 48.9323 48.0353 48.8794 48.057C48.8265 48.0788 48.7698 48.0897 48.7126 48.089C48.4712 48.089 48.2815 47.9015 48.2815 47.6516Z" fill="#231F20"/>
<path fill-rule="evenodd" clip-rule="evenodd" d="M53.7205 51.0936C53.7205 50.1244 53.0812 49.487 52.1613 49.487C51.2495 49.487 50.6021 50.1244 50.6021 51.0936C50.6021 52.0715 51.2495 52.7263 52.1613 52.7263C53.0812 52.7263 53.7205 52.0715 53.7205 51.0936ZM54.3167 51.0936C54.3167 52.3946 53.4308 53.2677 52.1613 53.2677C50.9004 53.2677 50.0059 52.3946 50.0059 51.0936C50.0059 49.8014 50.9004 48.937 52.1613 48.937C53.4308 48.937 54.3167 49.8014 54.3167 51.0936Z" fill="#231F20"/>
<path fill-rule="evenodd" clip-rule="evenodd" d="M59.4896 50.6528V53.2677H58.884V50.7983C58.884 49.9902 58.4451 49.5086 57.7252 49.5086C57.2687 49.5086 56.7596 49.5363 56.2155 49.6364V53.2677H55.6099V49.1639C56.2155 49.0279 57.1109 48.937 57.8304 48.937C58.8577 48.937 59.4896 49.5818 59.4896 50.6528Z" fill="#231F20"/>
<path fill-rule="evenodd" clip-rule="evenodd" d="M67.0595 51.0586C67.0595 50.1101 66.5111 49.4458 65.4606 49.4458C64.9493 49.4458 64.5294 49.4805 63.9992 49.558V52.4643C64.7303 52.5942 65.0407 52.5847 65.4977 52.5847C66.4473 52.5847 67.0595 51.9295 67.0595 51.0586ZM67.6802 51.0412C67.6802 52.24 66.8396 53.094 65.5705 53.094C65.0316 53.094 64.6937 53.094 63.9996 52.9727V54.9999H63.3694V49.1526C64.0821 49.0104 64.8068 48.9382 65.5334 48.937C66.8672 48.937 67.6621 49.7819 67.6802 51.0412Z" fill="#231F20"/>
<path fill-rule="evenodd" clip-rule="evenodd" d="M71.826 51.0936C71.826 50.1244 71.1867 49.487 70.2668 49.487C69.355 49.487 68.7075 50.1244 68.7075 51.0936C68.7075 52.0715 69.355 52.7263 70.2668 52.7263C71.1867 52.7263 71.826 52.0715 71.826 51.0936ZM72.4222 51.0936C72.4222 52.3946 71.5363 53.2677 70.2668 53.2677C69.0058 53.2677 68.1113 52.3946 68.1113 51.0936C68.1113 49.8014 69.0058 48.937 70.2668 48.937C71.5363 48.937 72.4222 49.8014 72.4222 51.0936Z" fill="#231F20"/>
<path fill-rule="evenodd" clip-rule="evenodd" d="M77.1642 53.0407C76.5658 53.1862 75.6597 53.2677 74.9385 53.2677C73.9181 53.2677 73.2844 52.7229 73.2844 51.5518V48.937H73.8828V51.434C73.8828 52.2785 74.2966 52.732 75.0441 52.732C75.5011 52.732 76.0115 52.6956 76.5658 52.6051V48.937H77.1642V53.0407Z" fill="#231F20"/>
<path fill-rule="evenodd" clip-rule="evenodd" d="M80.6127 49.5506C80.0527 49.5506 79.6018 49.5684 79.0336 49.642V53.2677H78.4573V49.157C79.1671 49.0145 79.8889 48.9408 80.6127 48.937V49.5506Z" fill="#231F20"/>
<path fill-rule="evenodd" clip-rule="evenodd" d="M88.1823 51.0586C88.1823 50.1101 87.6349 49.4458 86.5843 49.4458C86.0726 49.4458 85.6527 49.4805 85.1229 49.558V52.4643C85.8536 52.5942 86.164 52.5847 86.6205 52.5847C87.5702 52.5847 88.1823 51.9295 88.1823 51.0586ZM88.8035 51.0412C88.8035 52.24 87.9633 53.094 86.6938 53.094C86.1549 53.094 85.817 53.094 85.1229 52.9727V54.9999H84.4927V49.1526C85.2055 49.0104 85.9304 48.9381 86.6572 48.937C87.9905 48.937 88.785 49.7819 88.8035 51.0412Z" fill="#231F20"/>
<path fill-rule="evenodd" clip-rule="evenodd" d="M90.288 51.1023C90.288 52.0793 90.9015 52.7484 91.8529 52.7484C92.3473 52.7484 92.7866 52.6168 93.3543 52.2556V49.5705C92.8698 49.4942 92.38 49.456 91.8895 49.4562C90.8463 49.4562 90.288 50.134 90.288 51.1023ZM93.9764 49.157V53.1356H93.3543V52.7748C92.8327 53.1092 92.3658 53.2677 91.7705 53.2677C90.5074 53.2677 89.6655 52.3963 89.6655 51.085C89.6741 49.7996 90.4889 48.937 91.8166 48.937C92.6038 48.937 93.1254 48.9989 93.9764 49.157Z" fill="#231F20"/>
<path fill-rule="evenodd" clip-rule="evenodd" d="M94.9779 52.3591C95.5616 52.6146 96.1802 52.7649 96.6677 52.7649C97.2859 52.7649 97.7299 52.518 97.7299 52.059C97.7299 51.5393 97.129 51.4418 96.3453 51.2742C95.4658 51.0889 95.0132 50.8156 95.0132 50.1452C95.0132 49.3778 95.6137 48.937 96.6065 48.937C97.138 48.937 97.7476 49.0695 98.1567 49.2193L98.0088 49.6957C97.5122 49.5368 96.9721 49.4307 96.563 49.4307C95.9448 49.4307 95.5965 49.6688 95.5965 50.1188C95.5965 50.5423 95.962 50.6389 96.6763 50.807C97.6256 51.0183 98.2873 51.2036 98.2873 52.0066C98.2873 52.8441 97.6079 53.2677 96.6328 53.2677C96.0754 53.2677 95.4137 53.1087 94.8386 52.8619L94.9779 52.3591Z" fill="#231F20"/>
<path fill-rule="evenodd" clip-rule="evenodd" d="M99.2887 52.3591C99.8723 52.6146 100.491 52.7649 100.979 52.7649C101.597 52.7649 102.041 52.518 102.041 52.059C102.041 51.5393 101.44 51.4418 100.656 51.2742C99.7766 51.0889 99.324 50.8156 99.324 50.1452C99.324 49.3778 99.9245 48.937 100.917 48.937C101.449 48.937 102.058 49.0695 102.467 49.2193L102.32 49.6957C101.823 49.5368 101.283 49.4307 100.874 49.4307C100.256 49.4307 99.9073 49.6688 99.9073 50.1188C99.9073 50.5423 100.273 50.6389 100.987 50.807C101.936 51.0183 102.598 51.2036 102.598 52.0066C102.598 52.8441 101.919 53.2677 100.944 53.2677C100.386 53.2677 99.7245 53.1087 99.1494 52.8619L99.2887 52.3591Z" fill="#231F20"/>
<path fill-rule="evenodd" clip-rule="evenodd" d="M103.598 53.2676H104.193V49.1422H103.598V53.2676ZM103.46 47.6516C103.46 47.3922 103.65 47.2047 103.891 47.2047C104.133 47.2047 104.322 47.3922 104.322 47.6516C104.324 47.709 104.313 47.7661 104.292 47.8195C104.271 47.8728 104.239 47.9214 104.199 47.9622C104.159 48.003 104.111 48.0353 104.058 48.057C104.005 48.0788 103.948 48.0897 103.891 48.089C103.65 48.089 103.46 47.9015 103.46 47.6516Z" fill="#231F20"/>
<path fill-rule="evenodd" clip-rule="evenodd" d="M108.899 51.0936C108.899 50.1244 108.26 49.487 107.34 49.487C106.428 49.487 105.781 50.1244 105.781 51.0936C105.781 52.0715 106.428 52.7263 107.34 52.7263C108.26 52.7263 108.899 52.0715 108.899 51.0936ZM109.495 51.0936C109.495 52.3946 108.61 53.2677 107.34 53.2677C106.079 53.2677 105.185 52.3946 105.185 51.0936C105.185 49.8014 106.079 48.937 107.34 48.937C108.61 48.937 109.495 49.8014 109.495 51.0936Z" fill="#231F20"/>
<path fill-rule="evenodd" clip-rule="evenodd" d="M114.237 50.6528V53.2677H113.632V50.7983C113.632 49.9902 113.193 49.5086 112.473 49.5086C112.016 49.5086 111.507 49.5363 110.963 49.6364V53.2677H110.358V49.1639C110.963 49.0279 111.859 48.937 112.578 48.937C113.605 48.937 114.237 49.5818 114.237 50.6528Z" fill="#231F20"/>
</g>
</svg>
