<?xml version="1.0" encoding="UTF-8"?>
<svg xmlns="http://www.w3.org/2000/svg" xmlns:xlink="http://www.w3.org/1999/xlink" width="499px" height="133px" viewBox="0 0 251 67" version="1.1">
<g id="surface1">
<path style=" stroke:none;fill-rule:nonzero;fill:rgb(98.039216%,72.156863%,0%);fill-opacity:1;" d="M 10.246094 37.957031 C 10.308594 37.96875 12.382812 38.820312 14.578125 39.71875 L 21.300781 42.457031 C 22.894531 43.078125 23.71875 44.765625 23.265625 46.480469 C 22.722656 48.621094 20.164062 50.652344 14.679688 49.910156 C 12.5 49.609375 7.429688 48.527344 7.375 48.515625 L 7.410156 48.527344 C 7.289062 48.484375 4.234375 47.382812 2.347656 48.398438 C 1.675781 48.761719 1.242188 49.332031 1.039062 50.132812 C 0.328125 52.984375 3.257812 53.980469 3.277344 53.992188 C 4.328125 54.367188 5.484375 54.632812 6.417969 54.824219 L 7.199219 55.035156 C 7.253906 55.039062 13.917969 56.621094 19.191406 56.554688 C 22.660156 56.503906 31.085938 55.710938 34.378906 49.652344 C 34.863281 48.761719 35.539062 45.644531 35.207031 43.664062 C 34.804688 41.375 34.121094 39.089844 30.160156 36.515625 C 29.152344 35.878906 26.03125 34.832031 23.265625 33.914062 C 21.816406 33.441406 20.417969 32.972656 19.695312 32.679688 C 14.835938 30.722656 13.972656 28.929688 13.890625 28.039062 C 13.832031 27.523438 14 26.34375 14.925781 25.289062 C 16.09375 24.03125 18.027344 23.371094 20.691406 23.371094 C 24.695312 23.371094 26.238281 23.84375 27.886719 24.328125 C 28.199219 24.4375 28.511719 24.535156 28.855469 24.625 C 30.105469 24.949219 31.09375 24.90625 31.800781 24.476562 C 32.632812 23.949219 32.808594 23.0625 32.875 22.753906 C 32.96875 22.203125 33.097656 20.359375 30.191406 19.179688 C 29.953125 19.089844 24 16.765625 14.632812 18.066406 C 13.320312 18.246094 10.738281 18.75 8.320312 20.113281 C 4.777344 22.0625 2.9375 25.113281 3.003906 28.894531 C 3.046875 31.628906 4.3125 34.039062 6.6875 35.925781 C 8.457031 37.324219 10.191406 37.9375 10.261719 37.957031 "/>
<path style=" stroke:none;fill-rule:nonzero;fill:rgb(98.039216%,72.156863%,0%);fill-opacity:1;" d="M 70.089844 8.703125 C 54.71875 8.703125 42.285156 21.183594 42.285156 36.597656 C 42.285156 52 54.71875 64.492188 70.089844 64.492188 C 85.449219 64.492188 97.910156 52 97.910156 36.597656 C 97.910156 21.183594 85.449219 8.703125 70.089844 8.703125 Z M 70.09375 46.558594 C 64.621094 46.558594 60.152344 42.089844 60.152344 36.597656 C 60.152344 31.089844 64.621094 26.628906 70.09375 26.628906 C 75.5625 26.628906 80.023438 31.089844 80.023438 36.597656 C 80.023438 42.089844 75.5625 46.558594 70.09375 46.558594 Z M 70.09375 46.558594 "/>
<path style=" stroke:none;fill-rule:nonzero;fill:rgb(98.039216%,72.156863%,0%);fill-opacity:1;" d="M 106.5625 23.269531 C 106.5625 23.269531 106.34375 18.828125 111.085938 18.828125 C 113.789062 18.828125 115.5 21.289062 118.683594 21.289062 C 122.757812 21.289062 123.839844 18.828125 129.359375 18.828125 C 135.667969 18.828125 136.027344 21.289062 139.917969 21.289062 C 144.039062 21.289062 144.78125 18.828125 152.03125 18.828125 C 155.878906 18.828125 160.125 21.074219 160.125 25.917969 C 160.125 32.523438 160.140625 49.992188 160.140625 50.101562 C 160.140625 52.589844 158.121094 54.632812 155.617188 54.632812 C 153.121094 54.632812 151.105469 52.589844 151.105469 50.101562 C 151.105469 50.101562 151.105469 32.023438 151.105469 30.289062 C 151.105469 28.078125 151.132812 23.652344 147.273438 23.5625 C 147.273438 23.5625 137.859375 22.261719 137.859375 38.789062 C 137.859375 39.050781 137.871094 50.011719 137.871094 50.101562 C 137.871094 52.589844 135.847656 54.632812 133.355469 54.632812 C 130.90625 54.632812 128.90625 52.675781 128.839844 50.242188 C 128.839844 50.242188 128.839844 34.460938 128.839844 30.28125 C 128.839844 28.832031 129.085938 23.5625 124.9375 23.5625 C 116.921875 23.5625 115.605469 31.777344 115.605469 38.515625 L 115.605469 50.101562 C 115.605469 52.589844 113.578125 54.632812 111.085938 54.632812 C 108.632812 54.632812 106.632812 52.675781 106.5625 50.238281 L 106.5625 23.269531 "/>
<path style=" stroke:none;fill-rule:nonzero;fill:rgb(98.039216%,72.156863%,0%);fill-opacity:1;" d="M 187.132812 33.277344 C 187.199219 31.191406 188.886719 29.578125 190.984375 29.578125 L 190.980469 29.578125 L 191.054688 29.578125 L 190.972656 29.578125 C 190.984375 29.578125 191.023438 29.578125 195.878906 29.578125 C 197.464844 29.578125 198.734375 29.109375 199.632812 28.191406 C 201.054688 26.765625 201.109375 24.671875 201.109375 24.277344 C 201.113281 23.734375 201.035156 21.96875 199.75 20.679688 C 198.859375 19.78125 197.59375 19.316406 195.988281 19.316406 L 191.015625 19.316406 C 187.632812 19.316406 187.632812 18.539062 187.632812 16.488281 C 187.632812 16.445312 187.738281 12.273438 191.066406 11.097656 C 192.117188 10.710938 193.300781 10.523438 194.5625 10.515625 L 200.554688 10.515625 C 202.632812 10.515625 204.507812 9.125 205.09375 7.125 C 205.230469 6.679688 205.300781 6.222656 205.300781 5.765625 C 205.300781 3.148438 203.164062 1.019531 200.554688 1.019531 C 200.460938 1.019531 194.828125 1.039062 194.828125 1.039062 C 194.046875 1.039062 193.195312 1.089844 192.3125 1.179688 C 189.636719 1.464844 187.238281 2.085938 185.152344 3.007812 C 176.386719 6.902344 175.976562 14.859375 175.976562 14.945312 L 175.96875 15.070312 C 175.527344 17.824219 174.816406 19.316406 172.207031 19.316406 C 170.910156 19.316406 169.871094 19.726562 169.109375 20.5625 C 167.769531 21.996094 167.820312 24.214844 167.820312 24.246094 L 167.820312 24.214844 C 167.820312 28.734375 172.078125 29.578125 172.140625 29.585938 C 174.15625 29.753906 175.671875 31.382812 175.671875 33.371094 C 175.671875 33.476562 175.648438 43.640625 175.648438 49.003906 C 175.648438 50.894531 176.160156 52.351562 177.140625 53.351562 C 178.441406 54.648438 180.109375 54.660156 180.167969 54.660156 L 182.457031 54.660156 C 182.59375 54.660156 183.851562 54.632812 185.023438 53.8125 C 185.984375 53.160156 187.132812 51.792969 187.132812 49.054688 Z M 187.132812 33.277344 "/>
<path style=" stroke:none;fill-rule:nonzero;fill:rgb(98.039216%,72.156863%,0%);fill-opacity:1;" d="M 219.78125 47.980469 C 220.121094 48.726562 220.292969 49.523438 220.292969 50.367188 C 220.292969 54.8125 217.828125 56.722656 216.632812 57.722656 C 213.632812 60.214844 209.363281 60.035156 209.3125 60.035156 L 206.988281 60.035156 C 205.519531 60.035156 203.898438 61.25 203.898438 62.984375 C 203.898438 64.835938 205.132812 65.957031 207.207031 65.957031 L 209.324219 65.957031 C 209.4375 65.957031 212.414062 66.074219 215.605469 65.050781 C 218.832031 64.019531 223.289062 61.589844 226.371094 55.886719 C 227.105469 54.535156 233.457031 40.1875 238.082031 29.726562 L 241.609375 21.777344 C 241.816406 21.289062 241.84375 20.808594 241.707031 20.371094 C 241.554688 19.875 241.183594 19.464844 240.65625 19.179688 C 239.742188 18.703125 238.472656 18.679688 237.21875 19.074219 C 235.933594 19.488281 234.851562 20.339844 234.429688 21.289062 C 234.390625 21.414062 229.152344 32.773438 228.769531 33.554688 C 227.75 35.601562 226.511719 36.796875 225.382812 36.796875 C 224.050781 36.796875 223.222656 36.636719 221.3125 33.371094 C 221.164062 33.117188 215.4375 22.976562 214.519531 21.390625 C 214.003906 20.390625 212.882812 19.539062 211.53125 19.105469 C 210.175781 18.679688 208.777344 18.695312 207.792969 19.210938 C 207.214844 19.519531 206.808594 19.96875 206.640625 20.503906 C 206.488281 20.980469 206.53125 21.511719 206.75 22.042969 C 206.792969 22.148438 219.046875 46.445312 219.78125 47.980469 Z M 219.78125 47.980469 "/>
<path style=" stroke:none;fill-rule:nonzero;fill:rgb(98.039216%,72.156863%,0%);fill-opacity:1;" d="M 244.53125 54.410156 C 241.40625 54.410156 239.292969 52.148438 239.292969 49.117188 C 239.292969 46.078125 241.429688 43.789062 244.554688 43.789062 C 247.582031 43.789062 249.851562 46.078125 249.851562 49.117188 C 249.851562 52.148438 247.550781 54.410156 244.53125 54.410156 Z M 244.53125 45.023438 C 242.285156 45.023438 240.675781 46.800781 240.675781 49.117188 C 240.675781 51.414062 242.285156 53.195312 244.53125 53.195312 C 246.773438 53.195312 248.390625 51.414062 248.390625 49.117188 C 248.390625 46.800781 246.773438 45.023438 244.53125 45.023438 Z M 245.398438 51.6875 C 244.675781 50.398438 244.257812 49.601562 244.074219 49.601562 L 243.945312 49.601562 L 243.945312 51.6875 L 242.785156 51.6875 L 242.785156 46.394531 L 244.535156 46.394531 C 245.707031 46.394531 246.339844 47.011719 246.339844 47.832031 C 246.339844 48.695312 245.609375 49.128906 245.144531 49.28125 L 245.144531 49.292969 C 245.398438 49.292969 246.125 50.527344 246.765625 51.6875 Z M 244.140625 47.292969 L 243.945312 47.292969 L 243.945312 48.695312 L 244.113281 48.695312 C 244.660156 48.695312 245.097656 48.484375 245.097656 47.9375 C 245.097656 47.429688 244.753906 47.292969 244.140625 47.292969 Z M 244.140625 47.292969 "/>
</g>
</svg>
